<svg width="24" height="24" viewBox="0 0 24 24" fill="none" xmlns="http://www.w3.org/2000/svg">
<circle cx="12" cy="12" r="12" fill="#D9D9D9"/>
<g clip-path="url(#clip0_507_3)">
<path d="M10.667 12.6667C10.9533 13.0494 11.3186 13.3661 11.738 13.5953C12.1575 13.8245 12.6213 13.9607 13.0981 13.9949C13.5749 14.029 14.0534 13.9602 14.5012 13.7932C14.9491 13.6261 15.3557 13.3647 15.6937 13.0267L17.6937 11.0267C18.3009 10.398 18.6368 9.55598 18.6292 8.68199C18.6216 7.808 18.2711 6.97196 17.6531 6.35394C17.035 5.73591 16.199 5.38535 15.325 5.37775C14.451 5.37016 13.609 5.70614 12.9803 6.31333L11.8337 7.45333" stroke="#465A69" stroke-width="1.5" stroke-linecap="round" stroke-linejoin="round"/>
<path d="M13.3335 11.3333C13.0472 10.9506 12.6819 10.6339 12.2624 10.4047C11.843 10.1755 11.3791 10.0392 10.9024 10.0051C10.4256 9.97095 9.94707 10.0397 9.49924 10.2068C9.0514 10.3739 8.64472 10.6353 8.3068 10.9733L6.3068 12.9733C5.69961 13.602 5.36363 14.444 5.37122 15.318C5.37881 16.192 5.72938 17.028 6.3474 17.646C6.96543 18.2641 7.80147 18.6146 8.67546 18.6222C9.54945 18.6298 10.3915 18.2938 11.0201 17.6867L12.1601 16.5467" stroke="#465A69" stroke-width="1.5" stroke-linecap="round" stroke-linejoin="round"/>
</g>
<defs>
<clipPath id="clip0_507_3">
<rect width="16" height="16" fill="white" transform="translate(4 4)"/>
</clipPath>
</defs>
</svg>
