<svg width="24" height="24" viewBox="0 0 24 24" fill="none" xmlns="http://www.w3.org/2000/svg">
<g clip-path="url(#clip0_418_257)">
<path d="M24 12C24 5.37257 18.6274 0 12 0C5.37257 0 0 5.37257 0 12C0 17.9893 4.38857 22.9543 10.125 23.8543V15.4689H7.07786V12H10.125V9.35614C10.125 6.34886 11.9164 4.68771 14.6576 4.68771C15.9707 4.68771 17.3439 4.92171 17.3439 4.92171V7.875H15.831C14.34 7.875 13.875 8.80029 13.875 9.74914V12H17.2033L16.671 15.4689H13.875V23.8543C19.6119 22.9543 24 17.9893 24 12Z" fill="#1877F2"/>
<path d="M16.6717 15.4689L17.2031 12H13.8753V9.74914C13.8753 8.79986 14.3403 7.875 15.8308 7.875H17.3437V4.92214C17.3437 4.92214 15.971 4.68771 14.6578 4.68771C11.9167 4.68771 10.1253 6.34886 10.1253 9.35614V12H7.07812V15.4689H10.1253V23.8543C11.3677 24.0494 12.6329 24.0494 13.8753 23.8543V15.4689H16.6713H16.6717Z" fill="white"/>
</g>
<defs>
<clipPath id="clip0_418_257">
<rect width="24" height="24" fill="white"/>
</clipPath>
</defs>
</svg>
