<svg width="24" height="24" viewBox="0 0 24 24" fill="none" xmlns="http://www.w3.org/2000/svg">
<g clip-path="url(#clip0_418_261)">
<path d="M24 12C24 5.37258 18.6274 0 12 0C5.37258 0 0 5.37258 0 12C0 18.6274 5.37258 24 12 24C18.6274 24 24 18.6274 24 12Z" fill="#1DA1F2"/>
<path d="M10.4314 18C15.3043 18 17.9704 13.959 17.9704 10.461C17.9704 10.3474 17.9704 10.2339 17.9653 10.1199C18.4844 9.74389 18.9324 9.27848 19.2883 8.74543C18.8126 8.95714 18.3013 9.09686 17.7639 9.16372C18.318 8.83218 18.733 8.31074 18.9317 7.69629C18.4112 8.00496 17.8415 8.22169 17.2474 8.337C16.9998 8.07251 16.7004 7.86173 16.3679 7.71774C16.0354 7.57376 15.6769 7.49965 15.3146 7.5C14.6117 7.50046 13.9377 7.77986 13.4406 8.27685C12.9435 8.77385 12.664 9.4478 12.6634 10.1507C12.6634 10.3577 12.6891 10.5591 12.7307 10.7554C10.5296 10.647 8.57614 9.58757 7.269 7.98557C7.03448 8.39071 6.91145 8.85074 6.91243 9.31886C6.91262 9.75506 7.02021 10.1845 7.22568 10.5693C7.43115 10.9541 7.72819 11.2823 8.09057 11.5251C7.67062 11.5105 7.26 11.3973 6.89186 11.1947V11.2307C6.89239 11.8422 7.10399 12.4348 7.49089 12.9084C7.87779 13.382 8.41629 13.7075 9.01543 13.83C8.78819 13.8927 8.55344 13.924 8.31771 13.923C8.14757 13.923 7.98214 13.9076 7.82186 13.8763C7.99076 14.4029 8.32023 14.8635 8.76408 15.1934C9.20792 15.5234 9.7439 15.7062 10.2969 15.7161C9.35849 16.4539 8.19908 16.8543 7.00543 16.8527C6.79371 16.8527 6.58157 16.8424 6.375 16.8167C7.58666 17.5898 8.99412 18.0004 10.4314 18Z" fill="white"/>
</g>
<defs>
<clipPath id="clip0_418_261">
<rect width="24" height="24" fill="white"/>
</clipPath>
</defs>
</svg>
