<svg width="24" height="24" viewBox="0 0 24 24" fill="none" xmlns="http://www.w3.org/2000/svg">
<g clip-path="url(#clip0_418_253)">
<path d="M24 12C24 5.37258 18.6274 0 12 0C5.37258 0 0 5.37258 0 12C0 18.6274 5.37258 24 12 24C18.6274 24 24 18.6274 24 12Z" fill="#25D366"/>
<path fill-rule="evenodd" clip-rule="evenodd" d="M16.8023 7.1357C16.1728 6.502 15.4237 5.99955 14.5986 5.65746C13.7735 5.31537 12.8887 5.14045 11.9954 5.14285C8.24972 5.14285 5.20086 8.19127 5.19958 11.9378C5.198 13.1304 5.51095 14.3022 6.10686 15.3351L5.14258 18.8571L8.74515 17.9121C9.74143 18.4549 10.8579 18.7393 11.9924 18.7393H11.9954C15.7411 18.7393 18.7896 15.6904 18.7909 11.9434C18.7937 11.0504 18.6194 10.1656 18.2781 9.34041C17.9367 8.51517 17.4351 7.76582 16.8023 7.1357ZM11.9954 17.5916H11.9933C10.9797 17.5916 9.98586 17.319 9.11844 16.8043L8.91186 16.6817L6.77415 17.2427L7.34458 15.1581L7.21044 14.9443C6.64465 14.0439 6.34526 13.0017 6.34686 11.9383C6.34815 8.82428 8.88186 6.29056 11.9976 6.29056C12.7397 6.2888 13.4748 6.4343 14.1603 6.71863C14.8458 7.00297 15.468 7.42048 15.991 7.94699C16.517 8.47072 16.9339 9.09356 17.2175 9.77947C17.5012 10.4654 17.646 11.2007 17.6436 11.943C17.6423 15.0574 15.1086 17.5916 11.9954 17.5916ZM15.094 13.3611C14.9239 13.2758 14.089 12.8653 13.9334 12.8087C13.7774 12.7521 13.6643 12.7238 13.5516 12.8936C13.4384 13.0637 13.1127 13.4464 13.0137 13.5596C12.9147 13.6727 12.8157 13.6868 12.646 13.602C12.4763 13.5167 11.929 13.3376 11.2801 12.7594C10.7753 12.309 10.4346 11.7531 10.3356 11.583C10.2366 11.4128 10.3253 11.3211 10.4097 11.2367C10.486 11.1604 10.5799 11.0383 10.6647 10.9388C10.7496 10.8403 10.7779 10.7691 10.8344 10.656C10.891 10.5424 10.8627 10.4434 10.8203 10.3581C10.7783 10.2733 10.4389 9.43756 10.297 9.0977C10.159 8.76642 10.0189 8.81142 9.91472 8.80628C9.80635 8.8017 9.6979 8.7997 9.58943 8.80028C9.47629 8.80028 9.29244 8.8427 9.13644 9.01242C8.98086 9.18256 8.54201 9.59356 8.54201 10.4288C8.54201 11.2646 9.15058 12.0724 9.23543 12.186C9.32072 12.2991 10.4329 14.0138 12.1364 14.7497C12.5414 14.925 12.8577 15.0296 13.1046 15.1076C13.5109 15.237 13.8812 15.219 14.1739 15.1748C14.4996 15.126 15.1784 14.7643 15.3199 14.3674C15.4613 13.971 15.4613 13.6307 15.4184 13.56C15.3764 13.4888 15.2633 13.446 15.0936 13.3611H15.094Z" fill="white"/>
</g>
<defs>
<clipPath id="clip0_418_253">
<rect width="24" height="24" fill="white"/>
</clipPath>
</defs>
</svg>
